<?xml version="1.0" encoding="UTF-8" standalone="no"?>
<!-- Created with Inkscape (http://www.inkscape.org/) -->

<svg
   width="320px"
   height="240px"
   viewBox="0 0 320 240"
   version="1.1"
   id="SVGRoot"
   sodipodi:docname="lcars.svg"
   inkscape:version="1.1 (c68e22c387, 2021-05-23)"
   xmlns:inkscape="http://www.inkscape.org/namespaces/inkscape"
   xmlns:sodipodi="http://sodipodi.sourceforge.net/DTD/sodipodi-0.dtd"
   xmlns:xlink="http://www.w3.org/1999/xlink"
   xmlns="http://www.w3.org/2000/svg"
   xmlns:svg="http://www.w3.org/2000/svg">
  <sodipodi:namedview
     id="namedview21058"
     pagecolor="#ffffff"
     bordercolor="#666666"
     borderopacity="1.0"
     inkscape:pageshadow="2"
     inkscape:pageopacity="0.0"
     inkscape:pagecheckerboard="0"
     inkscape:document-units="px"
     showgrid="false"
     inkscape:zoom="2.8284271"
     inkscape:cx="134.17351"
     inkscape:cy="109.42477"
     inkscape:window-width="1920"
     inkscape:window-height="1017"
     inkscape:window-x="1912"
     inkscape:window-y="438"
     inkscape:window-maximized="1"
     inkscape:current-layer="layer1"
     inkscape:snap-bbox="true"
     inkscape:bbox-nodes="true"
     inkscape:snap-bbox-edge-midpoints="true" />
  <defs
     id="defs21053">
    <linearGradient
       inkscape:collect="always"
       id="linearGradient99063">
      <stop
         style="stop-color:#000080;stop-opacity:1;"
         offset="0"
         id="stop99059" />
      <stop
         style="stop-color:#000080;stop-opacity:0;"
         offset="1"
         id="stop99061" />
    </linearGradient>
    <linearGradient
       inkscape:collect="always"
       id="linearGradient95293">
      <stop
         style="stop-color:#ffffff;stop-opacity:1;"
         offset="0"
         id="stop95289" />
      <stop
         style="stop-color:#ffffff;stop-opacity:0;"
         offset="1"
         id="stop95291" />
    </linearGradient>
    <linearGradient
       inkscape:collect="always"
       xlink:href="#linearGradient95293"
       id="linearGradient95303"
       x1="73.317368"
       y1="120.80916"
       x2="307.48651"
       y2="120.80916"
       gradientUnits="userSpaceOnUse" />
    <radialGradient
       inkscape:collect="always"
       xlink:href="#linearGradient99063"
       id="radialGradient99067"
       cx="190.40195"
       cy="120.80916"
       fx="190.40195"
       fy="120.80916"
       r="117.08457"
       gradientTransform="matrix(1,0,0,0.79603759,0,24.640528)"
       gradientUnits="userSpaceOnUse" />
  </defs>
  <g
     inkscape:groupmode="layer"
     id="layer2"
     inkscape:label="Layer 2"
     style="display:inline">
    <rect
       style="fill:#000000;fill-opacity:1;stroke:#3366cc;stroke-width:0"
       id="rect31687"
       width="320"
       height="240"
       x="4.7477744e-07"
       y="4.7058822e-07" />
    <text
       xml:space="preserve"
       style="font-size:5.33333px;line-height:1.25;font-family:'Helvetica LT Std';-inkscape-font-specification:'Helvetica LT Std';fill:#ffffff"
       x="68.040863"
       y="140.71117"
       id="text43466-2"><tspan
         sodipodi:role="line"
         id="tspan43464-8"
         x="68.040863"
         y="140.71117"
         style="font-size:5.33333px" /></text>
  </g>
  <g
     inkscape:groupmode="layer"
     id="layer4"
     inkscape:label="Layer 4"
     style="display:inline;opacity:0.269231">
    <rect
       style="fill:#000000;fill-opacity:0;stroke:#3366cc;stroke-width:0"
       id="rect88381"
       width="208.92188"
       height="194.61121"
       x="86.578133"
       y="23.150002" />
    <path
       d="M 73.317369,27.605442 V 214.01288 M 95.270729,27.605442 V 214.01288 M 117.22409,27.605442 V 214.01288 M 139.17744,27.605442 V 214.01288 M 161.1308,27.605442 V 214.01288 M 183.08415,27.605442 V 214.01288 M 205.03752,27.605442 V 214.01288 M 226.99087,27.605442 V 214.01288 M 248.94422,27.605442 V 214.01288 M 270.89759,27.605442 V 214.01288 M 292.85095,27.605442 V 214.01288 M 73.317369,27.605442 H 307.48652 M 73.317369,39.255906 H 307.48652 M 73.317369,50.906361 H 307.48652 M 73.317369,62.556837 H 307.48652 M 73.317369,74.207292 H 307.48652 M 73.317369,85.857769 H 307.48652 M 73.317369,97.50822 H 307.48652 M 73.317369,109.1587 H 307.48652 M 73.317369,120.80915 H 307.48652 M 73.317369,132.45961 H 307.48652 M 73.317369,144.11009 H 307.48652 M 73.317369,155.76054 H 307.48652 M 73.317369,167.411 H 307.48652 M 73.317369,179.06147 H 307.48652 M 73.317369,190.71194 H 307.48652 M 73.317369,202.36239 H 307.48652 M 73.317369,214.01288 H 307.48652"
       style="fill:none;stroke:#ffffff;stroke-width:0.37695px;stroke-opacity:1"
       id="path93960" />
    <rect
       style="opacity:0.878205;fill:#000000;fill-opacity:1;stroke:#000088;stroke-width:0;stroke-opacity:1"
       id="rect99196"
       width="38.890873"
       height="209.65717"
       x="35.001785"
       y="20.506096" />
  </g>
  <g
     inkscape:groupmode="layer"
     id="layer5"
     inkscape:label="Layer 5"
     style="display:inline">
    <rect
       style="opacity:0.878205;fill:url(#radialGradient99067);fill-opacity:1;stroke:url(#linearGradient95303);stroke-width:0;stroke-opacity:1"
       id="rect94273"
       width="234.16914"
       height="186.40744"
       x="73.317368"
       y="27.605442" />
  </g>
  <g
     inkscape:label="Layer 1"
     inkscape:groupmode="layer"
     id="layer1"
     style="display:inline">
    <path
       id="rect21165"
       style="fill:#3366cc;stroke:#3366cc;stroke-width:0"
       d="M 21.75,3.0000005 C 11.39466,3.0000005 2.9999995,11.394661 3.0000005,21.75 V 40.5 H 21.75 63.000002 V 22.875 a 9.375,9.375 0 0 1 9.375,-9.375 H 123 V 3.0000005 Z" />
    <path
       id="rect21165-6"
       style="fill:#3366cc;stroke:#3366cc;stroke-width:0"
       d="M 21.750002,237 C 11.394662,237 3.0000012,228.60534 3.0000022,218.25 V 199.5 H 21.750002 63.000004 v 17.625 a 9.375,9.375 0 0 0 9.375,9.375 H 123 V 237 Z" />
    <path
       style="fill:#ff9900;fill-opacity:1;stroke:#3366cc;stroke-width:0"
       d="M 126,3.0000002 V 13.5 h 5 V 3.0000002 Z"
       id="path21376" />
    <path
       id="path84660"
       style="fill:#3366cc;stroke:#3366cc;stroke-width:0"
       d="M 77.789072,23.150001 C 72.935,23.15 69.000011,27.085003 69,31.939063 v 3.486328 34.074218 h 4.92188 V 45.769141 a 4.3945313,4.3945313 0 0 1 4.394531,-4.394531 h 8.261719 v -5.949219 -3.486328 -8.789062 z" />
    <path
       id="path84660-3"
       style="fill:#3366cc;stroke:#3366cc;stroke-width:0"
       d="m 77.789073,217.76121 c -4.854072,1e-5 -8.789061,-3.935 -8.789072,-8.78906 v -3.48633 -34.07421 h 4.92188 v 23.73046 a 4.3945313,4.3945313 0 0 0 4.394531,4.39454 h 8.261719 v 5.94921 3.48633 8.78906 z" />
    <path
       style="fill:#ff9900;fill-opacity:1;stroke:#3366cc;stroke-width:0"
       d="m 69.000011,71.499609 h 4.92187 v 2.34375 h -4.92187 z"
       id="path21376-8" />
    <path
       style="fill:#ff9900;fill-opacity:1;stroke:#3366cc;stroke-width:0"
       d="m 69.000011,75.843609 h 4.92187 v 2.34375 h -4.92187 z"
       id="path21376-8-8" />
    <path
       style="fill:#ff9900;fill-opacity:1;stroke:#3366cc;stroke-width:0"
       d="m 69.000011,80.187609 h 4.92187 v 2.34375 h -4.92187 z"
       id="path21376-8-9" />
    <path
       style="fill:#ff9900;fill-opacity:1;stroke:#3366cc;stroke-width:0"
       d="m 69.000011,84.531609 h 4.92187 v 2.34375 h -4.92187 z"
       id="path21376-8-8-4" />
    <path
       style="fill:#ff9900;fill-opacity:1;stroke:#3366cc;stroke-width:0"
       d="m 69.000011,88.87561 h 4.92187 v 2.34375 h -4.92187 z"
       id="path21376-8-7" />
    <path
       style="fill:#ff9900;fill-opacity:1;stroke:#3366cc;stroke-width:0"
       d="m 69.000011,93.21961 h 4.92187 v 2.34375 h -4.92187 z"
       id="path21376-8-8-1" />
    <path
       style="fill:#ff9900;fill-opacity:1;stroke:#3366cc;stroke-width:0"
       d="m 69.000011,97.56361 h 4.92187 v 2.34375 h -4.92187 z"
       id="path21376-8-9-4" />
    <path
       style="fill:#ff9900;fill-opacity:1;stroke:#3366cc;stroke-width:0"
       d="m 69.000011,101.90761 h 4.92187 v 2.34375 h -4.92187 z"
       id="path21376-8-8-4-3" />
    <path
       style="fill:#ff9900;fill-opacity:1;stroke:#3366cc;stroke-width:0"
       d="m 69.000011,106.25161 h 4.92187 v 2.34375 h -4.92187 z"
       id="path21376-8-1" />
    <path
       style="fill:#ff9900;fill-opacity:1;stroke:#3366cc;stroke-width:0"
       d="m 69.000011,110.59561 h 4.92187 v 2.34375 h -4.92187 z"
       id="path21376-8-8-2" />
    <path
       style="fill:#ff9900;fill-opacity:1;stroke:#3366cc;stroke-width:0"
       d="m 69.000011,114.93961 h 4.92187 v 2.34375 h -4.92187 z"
       id="path21376-8-9-7" />
    <path
       style="fill:#ff9900;fill-opacity:1;stroke:#3366cc;stroke-width:0"
       d="m 69.000011,119.28361 h 4.92187 v 2.34375 h -4.92187 z"
       id="path21376-8-8-4-0" />
    <path
       style="display:inline;fill:#3366cc;fill-opacity:1;stroke:#3366cc;stroke-width:0"
       d="m 100.21199,116.88405 h 19.18999 v 7.08135 h -19.18999 z"
       id="path21376-8-8-4-0-35-2" />
    <path
       style="display:inline;fill:#99ccff;fill-opacity:1;stroke:#3366cc;stroke-width:0"
       d="m 120.40199,116.88405 h 19.18999 v 7.08135 h -19.18999 z"
       id="path21376-8-8-4-0-35-2-5" />
    <path
       style="display:inline;fill:#3366cc;fill-opacity:1;stroke:#3366cc;stroke-width:0"
       d="m 140.59199,116.88405 h 19.18999 v 7.08135 h -19.18999 z"
       id="path21376-8-8-4-0-35-2-6" />
    <path
       style="display:inline;fill:#5599ff;fill-opacity:1;stroke:#3366cc;stroke-width:0"
       d="m 160.78199,116.88405 h 19.19 v 7.08135 h -19.19 z"
       id="path21376-8-8-4-0-35-7" />
    <path
       style="display:inline;fill:#99ccff;fill-opacity:1;stroke:#3366cc;stroke-width:0"
       d="m 180.97198,116.88405 h 19.18999 v 7.08135 h -19.18999 z"
       id="path21376-8-8-4-0-35-2-0" />
    <path
       style="display:inline;fill:#99ccff;fill-opacity:1;stroke:#3366cc;stroke-width:0"
       d="m 201.16198,116.88405 h 19.18999 v 7.08135 h -19.18999 z"
       id="path21376-8-8-4-0-35-2-5-1" />
    <path
       style="display:inline;fill:#3366cc;fill-opacity:1;stroke:#3366cc;stroke-width:0"
       d="m 221.35198,116.88405 h 19.18999 v 7.08135 h -19.18999 z"
       id="path21376-8-8-4-0-35-2-6-3" />
    <path
       style="display:inline;fill:#3366ff;fill-opacity:1;stroke:#3366cc;stroke-width:0"
       d="m 241.54199,116.88405 h 19.19 v 7.08135 h -19.19 z"
       id="path21376-8-8-4-0-35-0" />
    <path
       style="display:inline;fill:#3366cc;fill-opacity:1;stroke:#3366cc;stroke-width:0"
       d="m 261.73198,116.88405 h 19.18999 v 7.08135 h -19.18999 z"
       id="path21376-8-8-4-0-35-2-9" />
    <path
       style="fill:#ff9900;fill-opacity:1;stroke:#3366cc;stroke-width:0"
       d="m 69.000011,123.62761 h 4.92187 v 2.34375 h -4.92187 z"
       id="path21376-8-7-3" />
    <path
       style="fill:#ff9900;fill-opacity:1;stroke:#3366cc;stroke-width:0"
       d="m 69.000011,127.97161 h 4.92187 v 2.34375 h -4.92187 z"
       id="path21376-8-8-1-4" />
    <path
       style="fill:#ff9900;fill-opacity:1;stroke:#3366cc;stroke-width:0"
       d="m 69.000011,132.31561 h 4.92187 v 2.34375 h -4.92187 z"
       id="path21376-8-9-4-3" />
    <path
       style="fill:#ff9900;fill-opacity:1;stroke:#3366cc;stroke-width:0"
       d="m 69.000011,136.65961 h 4.92187 v 2.34375 h -4.92187 z"
       id="path21376-8-8-4-3-0" />
    <path
       style="fill:#ff9900;fill-opacity:1;stroke:#3366cc;stroke-width:0"
       d="m 69.000011,141.00361 h 4.92187 v 2.34375 h -4.92187 z"
       id="path21376-8-8-2-5" />
    <path
       style="fill:#ff9900;fill-opacity:1;stroke:#3366cc;stroke-width:0"
       d="m 69.000011,145.34761 h 4.92187 v 2.34375 h -4.92187 z"
       id="path21376-8-9-7-7" />
    <path
       style="fill:#ff9900;fill-opacity:1;stroke:#3366cc;stroke-width:0"
       d="m 69.000011,149.69161 h 4.92187 v 2.34375 h -4.92187 z"
       id="path21376-8-8-4-0-3" />
    <path
       style="fill:#ff9900;fill-opacity:1;stroke:#3366cc;stroke-width:0"
       d="m 69.000011,154.03561 h 4.92187 v 2.34375 h -4.92187 z"
       id="path21376-8-7-3-0" />
    <path
       style="fill:#ff9900;fill-opacity:1;stroke:#3366cc;stroke-width:0"
       d="m 69.000011,158.37961 h 4.92187 v 2.34375 h -4.92187 z"
       id="path21376-8-8-1-4-3" />
    <path
       style="fill:#ff9900;fill-opacity:1;stroke:#3366cc;stroke-width:0"
       d="m 69.000011,162.72361 h 4.92187 v 2.34375 h -4.92187 z"
       id="path21376-8-9-4-3-2" />
    <path
       style="fill:#ff9900;fill-opacity:1;stroke:#3366cc;stroke-width:0"
       d="m 69.000011,167.06761 h 4.92187 v 2.34375 h -4.92187 z"
       id="path21376-8-8-4-3-0-7" />
    <path
       id="path84660-4"
       style="display:inline;fill:#3366cc;stroke:#3366cc;stroke-width:0"
       d="m 304.28906,23.150001 c 4.85407,-1e-6 8.78906,3.935002 8.78907,8.789062 v 3.486328 34.074218 h -4.92188 V 45.769141 A 4.3945313,4.3945313 0 0 0 303.76172,41.37461 H 295.5 v -5.949219 -3.486328 -8.789062 z" />
    <path
       id="path84660-3-5"
       style="display:inline;fill:#3366cc;stroke:#3366cc;stroke-width:0"
       d="m 304.28906,217.76121 c 4.85407,1e-5 8.78906,-3.935 8.78907,-8.78906 v -3.48633 -34.07421 h -4.92188 v 23.73046 a 4.3945313,4.3945313 0 0 1 -4.39453,4.39454 H 295.5 v 5.94921 3.48633 8.78906 z" />
    <path
       style="display:inline;fill:#ff9900;fill-opacity:1;stroke:#3366cc;stroke-width:0"
       d="m 313.07812,71.499609 h -4.92187 v 2.34375 h 4.92187 z"
       id="path21376-8-2" />
    <path
       style="display:inline;fill:#ff9900;fill-opacity:1;stroke:#3366cc;stroke-width:0"
       d="m 313.07812,75.843609 h -4.92187 v 2.34375 h 4.92187 z"
       id="path21376-8-8-7" />
    <path
       style="display:inline;fill:#ff9900;fill-opacity:1;stroke:#3366cc;stroke-width:0"
       d="m 313.07812,80.187609 h -4.92187 v 2.34375 h 4.92187 z"
       id="path21376-8-9-2" />
    <path
       style="display:inline;fill:#ff9900;fill-opacity:1;stroke:#3366cc;stroke-width:0"
       d="m 313.07812,84.531609 h -4.92187 v 2.34375 h 4.92187 z"
       id="path21376-8-8-4-7" />
    <path
       style="display:inline;fill:#ff9900;fill-opacity:1;stroke:#3366cc;stroke-width:0"
       d="m 313.07812,88.87561 h -4.92187 v 2.34375 h 4.92187 z"
       id="path21376-8-7-0" />
    <path
       style="display:inline;fill:#ff9900;fill-opacity:1;stroke:#3366cc;stroke-width:0"
       d="m 313.07812,93.21961 h -4.92187 v 2.34375 h 4.92187 z"
       id="path21376-8-8-1-5" />
    <path
       style="display:inline;fill:#ff9900;fill-opacity:1;stroke:#3366cc;stroke-width:0"
       d="m 313.07812,97.56361 h -4.92187 v 2.34375 h 4.92187 z"
       id="path21376-8-9-4-8" />
    <path
       style="display:inline;fill:#ff9900;fill-opacity:1;stroke:#3366cc;stroke-width:0"
       d="m 313.07812,101.90761 h -4.92187 v 2.34375 h 4.92187 z"
       id="path21376-8-8-4-3-8" />
    <path
       style="display:inline;fill:#ff9900;fill-opacity:1;stroke:#3366cc;stroke-width:0"
       d="m 313.07812,106.25161 h -4.92187 v 2.34375 h 4.92187 z"
       id="path21376-8-1-2" />
    <path
       style="display:inline;fill:#ff9900;fill-opacity:1;stroke:#3366cc;stroke-width:0"
       d="m 313.07812,110.59561 h -4.92187 v 2.34375 h 4.92187 z"
       id="path21376-8-8-2-4" />
    <path
       style="display:inline;fill:#ff9900;fill-opacity:1;stroke:#3366cc;stroke-width:0"
       d="m 313.07812,114.93961 h -4.92187 v 2.34375 h 4.92187 z"
       id="path21376-8-9-7-4" />
    <path
       style="display:inline;fill:#ff9900;fill-opacity:1;stroke:#3366cc;stroke-width:0"
       d="m 313.07812,119.28361 h -4.92187 v 2.34375 h 4.92187 z"
       id="path21376-8-8-4-0-2" />
    <path
       style="display:inline;fill:#ff9900;fill-opacity:1;stroke:#3366cc;stroke-width:0"
       d="m 313.07812,123.62761 h -4.92187 v 2.34375 h 4.92187 z"
       id="path21376-8-7-3-7" />
    <path
       style="display:inline;fill:#ff9900;fill-opacity:1;stroke:#3366cc;stroke-width:0"
       d="m 313.07812,127.97161 h -4.92187 v 2.34375 h 4.92187 z"
       id="path21376-8-8-1-4-0" />
    <path
       style="display:inline;fill:#ff9900;fill-opacity:1;stroke:#3366cc;stroke-width:0"
       d="m 313.07812,132.31561 h -4.92187 v 2.34375 h 4.92187 z"
       id="path21376-8-9-4-3-3" />
    <path
       style="display:inline;fill:#ff9900;fill-opacity:1;stroke:#3366cc;stroke-width:0"
       d="m 313.07812,136.65961 h -4.92187 v 2.34375 h 4.92187 z"
       id="path21376-8-8-4-3-0-9" />
    <path
       style="display:inline;fill:#ff9900;fill-opacity:1;stroke:#3366cc;stroke-width:0"
       d="m 313.07812,141.00361 h -4.92187 v 2.34375 h 4.92187 z"
       id="path21376-8-8-2-5-1" />
    <path
       style="display:inline;fill:#ff9900;fill-opacity:1;stroke:#3366cc;stroke-width:0"
       d="m 313.07812,145.34761 h -4.92187 v 2.34375 h 4.92187 z"
       id="path21376-8-9-7-7-6" />
    <path
       style="display:inline;fill:#ff9900;fill-opacity:1;stroke:#3366cc;stroke-width:0"
       d="m 313.07812,149.69161 h -4.92187 v 2.34375 h 4.92187 z"
       id="path21376-8-8-4-0-3-1" />
    <path
       style="display:inline;fill:#ff9900;fill-opacity:1;stroke:#3366cc;stroke-width:0"
       d="m 313.07812,154.03561 h -4.92187 v 2.34375 h 4.92187 z"
       id="path21376-8-7-3-0-4" />
    <path
       style="display:inline;fill:#ff9900;fill-opacity:1;stroke:#3366cc;stroke-width:0"
       d="m 313.07812,158.37961 h -4.92187 v 2.34375 h 4.92187 z"
       id="path21376-8-8-1-4-3-5" />
    <path
       style="display:inline;fill:#ff9900;fill-opacity:1;stroke:#3366cc;stroke-width:0"
       d="m 313.07812,162.72361 h -4.92187 v 2.34375 h 4.92187 z"
       id="path21376-8-9-4-3-2-4" />
    <path
       style="display:inline;fill:#ff9900;fill-opacity:1;stroke:#3366cc;stroke-width:0"
       d="m 313.07812,167.06761 h -4.92187 v 2.34375 h 4.92187 z"
       id="path21376-8-8-4-3-0-7-0" />
    <path
       style="fill:#ff9900;fill-opacity:1;stroke:#3366cc;stroke-width:0"
       d="M 126,226.5 V 237 h 5 v -10.5 z"
       id="path21376-7" />
    <path
       style="fill:#3366cc;stroke:#3366cc;stroke-width:0"
       d="M 301.484,3.0000005 V 13.5 h 5 V 3.0000005 Z"
       id="path21376-2" />
    <path
       style="fill:#3366cc;stroke:#3366cc;stroke-width:0"
       d="M 134,3.0000001 V 13.5 h 76.156 V 3.0000001 Z"
       id="path21376-6" />
    <path
       style="fill:#3366cc;stroke:#3366cc;stroke-width:0"
       d="M 134,226.5 V 237 h 172.484 v -10.5 z"
       id="path21376-6-3" />
    <text
       xml:space="preserve"
       style="font-size:14.1892px;line-height:1.25;font-family:'Helvetica LT Std';-inkscape-font-specification:'Helvetica LT Std';fill:#ffffff;stroke-width:0.35473"
       x="212.7677"
       y="13.301355"
       id="text26146"><tspan
         sodipodi:role="line"
         id="tspan26144"
         x="212.7677"
         y="13.301355"
         style="fill:#ffffff;stroke-width:0.35473">SCAN MODE ACTIVE 503</tspan></text>
    <path
       id="rect29693"
       style="fill:#3366cc;fill-opacity:1;stroke:#3366cc;stroke-width:0"
       d="M 309.48438,3 V 13.5 H 311.75 C 314.6585,13.5 317,11.158499 317,8.25 317,5.3415011 314.6585,3 311.75,3 Z" />
    <path
       id="rect29693-7"
       style="fill:#3366cc;fill-opacity:1;stroke:#3366cc;stroke-width:0"
       d="M 309.48438,226.5 V 237 H 311.75 c 2.9085,0 5.25,-2.3415 5.25,-5.25 0,-2.9085 -2.3415,-5.25 -5.25,-5.25 z" />
    <rect
       style="fill:#5599ff;fill-opacity:1;stroke:#3366cc;stroke-width:0"
       id="rect30356"
       width="60"
       height="24"
       x="3.0000024"
       y="43.5" />
    <rect
       style="fill:#3366cc;fill-opacity:1;stroke:#3366cc;stroke-width:0"
       id="rect30356-0"
       width="60"
       height="24"
       x="3.0000024"
       y="121.5" />
    <rect
       style="fill:#99ccff;fill-opacity:1;stroke:#3366cc;stroke-width:0"
       id="rect30356-0-3"
       width="60"
       height="11.999999"
       x="3.0000024"
       y="148.5" />
    <rect
       style="fill:#99ccff;fill-opacity:1;stroke:#3366cc;stroke-width:0"
       id="rect30356-0-3-2"
       width="60"
       height="32.996998"
       x="3.0000024"
       y="163.5" />
    <rect
       style="fill:#3366cc;fill-opacity:1;stroke:#3366cc;stroke-width:0"
       id="rect30356-9"
       width="60"
       height="47.999996"
       x="3.0000024"
       y="70.5" />
  </g>
  <g
     inkscape:groupmode="layer"
     id="layer6"
     inkscape:label="Layer 6" />
  <g
     inkscape:groupmode="layer"
     id="layer3"
     inkscape:label="Layer 3"
     style="display:inline">
    <text
       xml:space="preserve"
       style="font-size:5.33333px;line-height:1.25;font-family:'Helvetica LT Std';-inkscape-font-specification:'Helvetica LT Std';fill:#ffffff"
       x="43.898998"
       y="117.425"
       id="text43466"><tspan
         sodipodi:role="line"
         id="tspan43464"
         x="43.898998"
         y="117.425"
         style="font-size:5.33333px">MODE SELECT</tspan></text>
    <text
       xml:space="preserve"
       style="font-size:5.33333px;line-height:1.25;font-family:'Helvetica LT Std';-inkscape-font-specification:'Helvetica LT Std';fill:#ffffff"
       x="55.578667"
       y="159.07899"
       id="text43466-9"><tspan
         sodipodi:role="line"
         id="tspan43464-2"
         x="55.578667"
         y="159.07899"
         style="font-size:5.33333px">FREQ</tspan></text>
    <text
       xml:space="preserve"
       style="font-size:5.33333px;line-height:1.25;font-family:'Helvetica LT Std';-inkscape-font-specification:'Helvetica LT Std';fill:#ffffff"
       x="50.794998"
       y="195.422"
       id="text43466-9-8"><tspan
         sodipodi:role="line"
         id="tspan43464-2-0"
         x="50.794998"
         y="195.422"
         style="font-size:5.33333px">ARCHIVE</tspan></text>
    <text
       xml:space="preserve"
       style="font-size:5.33333px;line-height:1.25;font-family:'Helvetica LT Std';-inkscape-font-specification:'Helvetica LT Std';fill:#ffffff"
       x="52.335667"
       y="144.425"
       id="text43466-9-1"><tspan
         sodipodi:role="line"
         x="52.335667"
         y="144.425"
         style="font-size:5.33333px"
         id="tspan80049">SYS 47</tspan></text>
    <text
       xml:space="preserve"
       style="font-size:5.33333px;line-height:1.25;font-family:'Helvetica LT Std';-inkscape-font-specification:'Helvetica LT Std';fill:#ffffff"
       x="51.973667"
       y="66.500328"
       id="text43466-9-9"><tspan
         sodipodi:role="line"
         id="tspan43464-2-8"
         x="51.973667"
         y="66.500328"
         style="font-size:5.33333px">ENABLE</tspan></text>
  </g>
</svg>
